<?xml version="1.0" standalone="no"?>
<!DOCTYPE svg PUBLIC "-//W3C//DTD SVG 20010904//EN"
 "http://www.w3.org/TR/2001/REC-SVG-20010904/DTD/svg10.dtd">
<svg version="1.0" xmlns="http://www.w3.org/2000/svg"
 width="642.000000pt" height="104.000000pt" viewBox="0 0 642.000000 104.000000"
 preserveAspectRatio="xMidYMid meet">

<g transform="translate(0.000000,104.000000) scale(0.100000,-0.100000)"
fill="#004069" stroke="none">
<path d="M761 250 c-69 -51 -220 -126 -316 -159 -121 -41 -220 -61 -338 -68
-54 -3 -100 -10 -103 -15 -3 -4 1440 -8 3205 -8 1766 0 3211 4 3211 8 0 5 -30
10 -67 11 -237 7 -515 98 -696 229 l-48 35 -52 -36 c-133 -92 -336 -176 -502
-208 -108 -22 -408 -19 -515 5 -174 38 -342 107 -466 192 l-67 46 -51 -36
c-132 -91 -335 -175 -501 -207 -108 -22 -408 -19 -515 5 -174 38 -342 107
-466 192 l-67 46 -51 -36 c-132 -91 -335 -175 -501 -207 -108 -22 -408 -19
-515 5 -173 38 -342 107 -464 191 -37 25 -68 45 -70 45 -1 0 -22 -14 -45 -30z"/>
</g>
</svg>
