<svg xmlns="http://www.w3.org/2000/svg" width="159.999" height="159.999" viewBox="0 0 159.999 159.999">
  <g id="Group_717" data-name="Group 717" transform="translate(0 -320)">
    <path id="Path_258" data-name="Path 258" d="M0,0,0,160H160L160,0Z" transform="translate(0 320)" fill="#fd0"/>
    <g id="Group_443" data-name="Group 443" transform="translate(-495 -1233.736)">
      <g id="Group_306" data-name="Group 306" transform="translate(515.893 1577.736)">
        <path id="Path_259" data-name="Path 259" d="M1.012,2.088H-2.206c-6.159,0-8.549-2.665-8.549-8.411V-21.676H-13.33c0-3.861,0-5.838,2.3-5.838H1.149c8.688,0,14.662,4.642,14.662,14.02,0,9.469-6.894,15.582-14.8,15.582M-4-21.676V-7.106c0,2.3.965,3.357,3.263,3.357H.23c4.5,0,8.319-3.173,8.319-9.745,0-6.113-4.043-8.182-8.732-8.182Z" transform="translate(13.33 27.514)" fill="#004069"/>
      </g>
      <g id="Group_307" data-name="Group 307" transform="translate(550.546 1577.736)">
        <path id="Path_260" data-name="Path 260" d="M1.427,2.088h-11.9c-6.252,0-8.32-2.068-8.32-8.136V-24.021c0-3.493,1.011-3.493,6.894-3.493H-1.056c2.207,0,2.207,1.885,2.207,5.608H-11.9v7.171H-1.561V-9.77H-11.9V-6.6c0,2.16.92,3.079,3.172,3.079H1.427Z" transform="translate(18.798 27.514)" fill="#004069"/>
      </g>
      <g id="Group_308" data-name="Group 308" transform="translate(517.456 1618.66)">
        <path id="Path_261" data-name="Path 261" d="M1.861,2.12V-17A133.629,133.629,0,0,1-4.85-1.741,19.018,19.018,0,0,1-11.33-.592a148.181,148.181,0,0,1-6.758-16.594V1.936h-6.435V-26.286a27.589,27.589,0,0,1,9.285-1.655A163.358,163.358,0,0,0-8.021-9a137.266,137.266,0,0,0,6.894-17.33A25.261,25.261,0,0,1,8.3-27.941V-1.373C8.3,2.12,7.654,2.12,1.861,2.12" transform="translate(24.523 27.941)" fill="#004069"/>
      </g>
      <g id="Group_309" data-name="Group 309" transform="translate(556.752 1618.936)">
        <path id="Path_262" data-name="Path 262" d="M1.427,2.088H-10.48c-6.251,0-8.319-2.069-8.319-8.136V-24.022c0-3.492,1.01-3.492,6.894-3.492H-1.057c2.208,0,2.208,1.885,2.208,5.608H-11.9v7.171H-1.561V-9.77H-11.9V-6.6c0,2.161.919,3.08,3.172,3.08H1.427Z" transform="translate(18.799 27.514)" fill="#004069"/>
      </g>
      <g id="Group_310" data-name="Group 310" transform="translate(582.398 1618.936)">
        <path id="Path_263" data-name="Path 263" d="M1.427,2.088H-10.479C-16.73,2.088-18.8.019-18.8-6.048V-24.022c0-3.492,1.011-3.492,6.894-3.492H-1.056c2.207,0,2.207,1.885,2.207,5.608H-11.9v7.171H-1.561V-9.77H-11.9V-6.6c0,2.161.92,3.08,3.172,3.08H1.427Z" transform="translate(18.798 27.514)" fill="#004069"/>
      </g>
      <g id="Group_311" data-name="Group 311" transform="translate(608.18 1618.935)">
        <path id="Path_264" data-name="Path 264" d="M1.225,1.258,4.674,6.177c1.332,1.93,2.481,2.8,4.5,2.8h.6v.966c0,2.344-2.3,3.539-5.01,3.539-2.666,0-4.412-.6-6.573-4.321L-4.843,4.154H-9.3v8.872h-6.848V-13.085c0-3.492.874-3.492,6.848-3.492h4.6c7.17,0,11.674,2.988,11.674,8.964A9.226,9.226,0,0,1,1.225,1.258M-6.128-10.923H-9.3v9.561h3.309c3.4,0,5.93-1.93,5.93-5.149,0-3.493-2.757-4.412-6.067-4.412" transform="translate(16.149 16.577)" fill="#004069"/>
      </g>
      <g id="Group_312" data-name="Group 312" transform="translate(517.457 1660.133)">
        <path id="Path_265" data-name="Path 265" d="M.665,1.485H-1.91v8.55H-8.758v-26.11c0-3.493.873-3.493,6.848-3.493H1.215c7.814,0,12.549,3.034,12.549,10.113,0,6.758-5.424,10.94-13.1,10.94M.2-13.914H-1.91V-3.892H-.116c4.457,0,6.8-2.208,6.8-5.562,0-3.494-2.757-4.46-6.481-4.46" transform="translate(8.758 19.568)" fill="#004069"/>
      </g>
      <g id="Group_313" data-name="Group 313" transform="translate(540.389 1659.719)">
        <path id="Path_266" data-name="Path 266" d="M1.573,2.117-.175-3.032H-11.666l-1.471,5.149h-7.585a156.13,156.13,0,0,1,9.884-24.546,5.133,5.133,0,0,0,.689-3.769A20.218,20.218,0,0,1-2.38-27.9L9.2,1.565v.552ZM-5.69-19.256c-1.518,3.4-2.943,7.031-4.184,10.663H-2.06Z" transform="translate(20.722 27.899)" fill="#004069"/>
      </g>
      <g id="Group_314" data-name="Group 314" transform="translate(573.204 1659.719)">
        <path id="Path_267" data-name="Path 267" d="M1.573,2.117-.175-3.032H-11.666l-1.471,5.149h-7.585a156.13,156.13,0,0,1,9.884-24.546,5.128,5.128,0,0,0,.689-3.769A20.223,20.223,0,0,1-2.38-27.9L9.2,1.565v.552ZM-5.69-19.256c-1.518,3.4-2.943,7.031-4.184,10.663H-2.06Z" transform="translate(20.722 27.899)" fill="#004069"/>
      </g>
      <g id="Group_315" data-name="Group 315" transform="translate(606.709 1659.949)">
        <path id="Path_268" data-name="Path 268" d="M.59,2.1C-5.662,2.1-7.776.032-7.776-6.035V-24.192c0-3.494.874-3.494,6.894-3.494V-6.678c0,1.976.874,2.8,2.9,2.8H11.3V2.1Z" transform="translate(7.776 27.686)" fill="#004069"/>
      </g>
    </g>
  </g>
</svg>
