<?xml version="1.0" encoding="UTF-8"?><svg id="Layer_2" xmlns="http://www.w3.org/2000/svg" fill="#E8348B" viewBox="0 0 936.38 21.03"><g id="Layer_1-2"><g><path d="M700.43,20.98c-3.33,.28-6.46-.73-9.45-2.3-1.37-.72-1.96-1.31-.43-2.66,3.78-3.35,7.41-6.86,11.11-10.29,6.61-6.12,15.56-7.32,23.33-3.26,1.65,.87,2.17,1.53,.54,2.97-4.28,3.78-8.35,7.8-12.73,11.46-3.46,2.9-7.61,4.37-12.36,4.07Z"/><path d="M460.55,20.98c-3.34,.28-6.46-.74-9.46-2.31-1.4-.73-1.92-1.33-.41-2.66,3.78-3.35,7.41-6.86,11.11-10.29,6.61-6.11,15.57-7.31,23.33-3.24,1.68,.88,2.13,1.55,.51,2.98-4.28,3.78-8.35,7.8-12.73,11.46-3.46,2.9-7.61,4.36-12.36,4.06Z"/><path d="M220.57,20.98c-3.41,.26-6.52-.8-9.51-2.39-1.34-.71-1.67-1.32-.33-2.52,3.83-3.42,7.51-6.99,11.3-10.46,6.61-6.06,15.71-7.19,23.36-3.06,1.62,.88,1.87,1.56,.42,2.84-4.27,3.8-8.35,7.8-12.72,11.47-3.53,2.96-7.75,4.44-12.52,4.11Z"/><path d="M820.32,20.97c-3.48,.28-6.67-.81-9.71-2.47-1.11-.6-1.47-1.2-.34-2.22,4.48-4.04,8.66-8.46,13.43-12.14,6.57-5.07,13.87-5.35,21.33-1.62,1.56,.78,2.03,1.46,.51,2.82-4.33,3.85-8.46,7.92-12.91,11.62-3.46,2.89-7.62,4.33-12.31,4Z"/><path d="M580.45,20.97c-3.48,.28-6.67-.81-9.71-2.47-1.11-.6-1.47-1.2-.34-2.22,4.48-4.04,8.66-8.46,13.43-12.14,6.57-5.07,13.87-5.35,21.33-1.62,1.56,.78,2.03,1.46,.51,2.82-4.33,3.85-8.46,7.91-12.91,11.62-3.46,2.89-7.62,4.33-12.31,4Z"/><path d="M100.68,20.98c-3.44,.28-6.63-.8-9.67-2.46-1.07-.58-1.55-1.16-.39-2.21,4.48-4.05,8.66-8.46,13.43-12.14,6.57-5.08,13.86-5.36,21.33-1.66,1.86,.92,1.85,1.68,.38,2.99-4.21,3.73-8.23,7.68-12.53,11.3-3.52,2.97-7.72,4.48-12.55,4.18Z"/><path d="M340.55,20.97c-3.5,.28-6.68-.83-9.72-2.48-1.15-.62-1.39-1.24-.29-2.22,4.48-4.04,8.66-8.46,13.43-12.14,6.58-5.07,13.88-5.32,21.34-1.59,1.62,.81,1.93,1.52,.46,2.83-4.33,3.85-8.46,7.92-12.91,11.62-3.47,2.89-7.63,4.31-12.3,3.98Z"/><path d="M190.39,20.99c-3.27,.23-6.38-.82-9.34-2.43-.98-.53-1.73-1.05-.53-2.19,4.51-4.25,8.78-8.81,13.79-12.46,6.52-4.76,13.64-5.06,20.92-1.46,1.69,.84,2.13,1.58,.53,3-4.2,3.73-8.24,7.65-12.51,11.3-3.59,3.07-7.9,4.44-12.85,4.24Z"/><path d="M160.45,20.99c-3.26,.25-6.45-.83-9.49-2.48-1.1-.6-1.47-1.17-.37-2.22,4.45-4.19,8.68-8.67,13.6-12.3,6.59-4.86,13.76-5.16,21.13-1.5,1.87,.93,1.81,1.74,.36,3.02-4.13,3.68-8.12,7.53-12.32,11.14-3.58,3.08-7.87,4.5-12.92,4.33Z"/><path d="M250.42,20.99c-3.33,.25-6.5-.85-9.54-2.5-1.16-.63-1.33-1.24-.28-2.23,4.45-4.19,8.68-8.67,13.6-12.29,6.6-4.84,13.78-5.13,21.13-1.44,1.62,.82,1.91,1.56,.46,2.86-4.25,3.8-8.35,7.77-12.7,11.46-3.53,3-7.78,4.33-12.67,4.14Z"/><path d="M280.43,20.99c-3.27,.25-6.46-.81-9.5-2.47-1.07-.58-1.54-1.14-.41-2.21,4.45-4.19,8.68-8.67,13.6-12.3,6.59-4.87,13.76-5.18,21.13-1.52,1.82,.9,1.89,1.7,.41,3.02-4.2,3.73-8.24,7.65-12.52,11.29-3.52,3-7.76,4.36-12.71,4.19Z"/><path d="M310.33,21c-3.23,.24-6.42-.84-9.46-2.49-1.11-.61-1.46-1.21-.34-2.22,4.47-4.04,8.66-8.45,13.41-12.13,6.47-5.01,13.69-5.36,21.09-1.76,1.78,.86,2.31,1.61,.57,3.14-4.16,3.66-8.13,7.52-12.33,11.13-3.58,3.08-7.88,4.48-12.95,4.32Z"/><path d="M130.54,20.99c-3.29,.26-6.48-.8-9.52-2.46-1.04-.57-1.6-1.12-.44-2.2,4.45-4.19,8.68-8.67,13.59-12.3,6.67-4.93,13.93-5.21,21.35-1.43,1.54,.78,1.72,1.53,.4,2.72-4.31,3.86-8.47,7.89-12.89,11.62-3.46,2.92-7.65,4.23-12.49,4.05Z"/><path d="M370.34,20.99c-3.25,.24-6.36-.81-9.34-2.39-1.16-.62-1.71-1.18-.46-2.36,4.46-4.18,8.68-8.67,13.61-12.29,6.61-4.83,13.79-5.11,21.14-1.41,1.67,.84,1.83,1.6,.41,2.87-4.25,3.8-8.35,7.77-12.7,11.46-3.53,2.99-7.78,4.32-12.66,4.12Z"/><path d="M400.32,20.99c-3.27,.25-6.45-.83-9.49-2.48-1.11-.6-1.45-1.19-.35-2.22,4.45-4.19,8.68-8.67,13.6-12.3,6.59-4.86,13.77-5.15,21.13-1.49,1.88,.94,1.78,1.75,.35,3.03-4.13,3.68-8.12,7.53-12.32,11.14-3.58,3.08-7.87,4.49-12.91,4.32Z"/><path d="M430.26,20.99c-3.14,.24-6.17-.79-9.1-2.28-1.43-.73-1.88-1.38-.45-2.67,3.93-3.55,7.67-7.29,11.64-10.78,6.56-5.77,15.26-6.72,22.72-2.83,1.93,1.01,1.97,1.79,.4,3.17-4.15,3.67-8.12,7.53-12.33,11.13-3.59,3.07-7.9,4.45-12.88,4.26Z"/><path d="M70.49,20.99c-3.26,.24-6.37-.81-9.34-2.4-1.17-.62-1.68-1.2-.44-2.36,4.46-4.18,8.67-8.68,13.61-12.28,6.61-4.83,13.79-5.1,21.14-1.4,1.69,.85,1.79,1.62,.4,2.87-4.25,3.8-8.35,7.77-12.7,11.46-3.53,2.99-7.79,4.32-12.66,4.12Z"/><path d="M490.32,20.99c-3.26,.25-6.45-.81-9.49-2.46-1.06-.57-1.57-1.13-.43-2.21,4.45-4.19,8.68-8.67,13.59-12.3,6.59-4.87,13.76-5.19,21.13-1.54,1.8,.89,1.93,1.68,.42,3.01-4.2,3.73-8.24,7.65-12.52,11.29-3.52,3-7.76,4.36-12.72,4.2Z"/><path d="M520.28,20.99c-3.24,.25-6.43-.81-9.47-2.47-1.06-.58-1.56-1.13-.42-2.21,4.45-4.19,8.68-8.67,13.59-12.3,6.59-4.87,13.76-5.19,21.13-1.53,1.81,.9,1.91,1.68,.42,3.01-4.2,3.73-8.24,7.65-12.52,11.29-3.52,3-7.76,4.36-12.74,4.2Z"/><path d="M550.28,20.99c-3.27,.25-6.45-.81-9.5-2.47-1.06-.58-1.55-1.14-.41-2.21,4.45-4.19,8.68-8.67,13.6-12.3,6.59-4.87,13.76-5.18,21.13-1.53,1.82,.9,1.9,1.69,.41,3.02-4.2,3.73-8.24,7.65-12.52,11.29-3.52,3-7.76,4.36-12.71,4.19Z"/><path d="M40.52,20.99c-3.26,.25-6.45-.83-9.49-2.48-1.1-.6-1.47-1.18-.36-2.22,4.45-4.19,8.68-8.67,13.6-12.3,6.59-4.86,13.76-5.16,21.13-1.5,1.87,.93,1.8,1.74,.36,3.02-4.13,3.68-8.12,7.53-12.32,11.14-3.58,3.08-7.87,4.5-12.92,4.33Z"/><path d="M610.17,20.99c-3.13,.24-6.16-.78-9.09-2.27-1.4-.71-1.94-1.34-.48-2.66,3.93-3.54,7.67-7.29,11.64-10.78,6.56-5.77,15.24-6.74,22.72-2.85,1.9,.99,2.03,1.76,.44,3.17-4.15,3.67-8.12,7.53-12.33,11.13-3.59,3.07-7.89,4.46-12.89,4.27Z"/><path d="M640.28,20.99c-3.28,.26-6.47-.8-9.51-2.45-1.03-.56-1.63-1.11-.46-2.2,4.51-4.24,8.78-8.81,13.79-12.45,6.63-4.81,13.82-5.04,21.14-1.3,1.52,.78,1.76,1.51,.42,2.71-4.31,3.86-8.47,7.89-12.88,11.62-3.46,2.92-7.65,4.23-12.49,4.06Z"/><path d="M670.23,20.99c-3.35,.25-6.53-.84-9.57-2.5-1.16-.63-1.35-1.23-.29-2.23,4.45-4.19,8.68-8.67,13.6-12.29,6.6-4.84,13.78-5.13,21.13-1.44,1.62,.81,1.92,1.56,.47,2.86-4.25,3.8-8.35,7.77-12.7,11.46-3.53,3-7.78,4.33-12.65,4.14Z"/><path d="M10.6,20.99c-3.28,.26-6.47-.8-9.51-2.46-1.04-.57-1.6-1.12-.45-2.2C5.16,12.09,9.42,7.52,14.44,3.88,21.07-.92,28.26-1.14,35.58,2.6c1.54,.79,1.73,1.53,.4,2.72-4.31,3.86-8.47,7.89-12.89,11.62-3.46,2.92-7.65,4.22-12.49,4.05Z"/><path d="M730.15,20.99c-3.27,.25-6.45-.84-9.49-2.49-1.12-.61-1.43-1.19-.34-2.22,4.45-4.19,8.68-8.67,13.6-12.29,6.59-4.85,13.77-5.14,21.13-1.48,1.9,.94,1.75,1.76,.33,3.03-4.13,3.69-8.12,7.53-12.32,11.14-3.58,3.08-7.87,4.49-12.91,4.32Z"/><path d="M760.12,20.99c-3.17,.24-6.2-.79-9.13-2.28-1.43-.72-1.89-1.37-.46-2.67,3.93-3.55,7.67-7.29,11.64-10.78,6.56-5.77,15.25-6.72,22.72-2.83,1.93,1.01,1.97,1.78,.41,3.17-4.15,3.67-8.12,7.53-12.33,11.13-3.59,3.07-7.9,4.45-12.85,4.26Z"/><path d="M790.08,20.99c-3.26,.23-6.37-.82-9.34-2.43-.97-.53-1.77-1.06-.54-2.18,4.53-4.11,8.77-8.58,13.6-12.29,6.49-4.98,13.72-5.27,21.1-1.63,1.68,.83,2.16,1.56,.55,2.99-4.2,3.73-8.24,7.65-12.51,11.3-3.59,3.07-7.9,4.44-12.86,4.24Z"/><path d="M850.17,20.99c-3.24,.26-6.44-.78-9.48-2.44-.99-.54-1.71-1.06-.52-2.19,4.51-4.25,8.78-8.81,13.79-12.45,6.62-4.82,13.82-5.06,21.14-1.33,1.46,.75,1.86,1.46,.47,2.7-4.37,3.91-8.59,8-13.08,11.77-3.4,2.85-7.54,4.09-12.33,3.93Z"/><path d="M880.09,20.99c-3.34,.25-6.51-.85-9.55-2.5-1.18-.64-1.3-1.26-.26-2.23,4.45-4.19,8.67-8.67,13.6-12.29,6.6-4.84,13.79-5.12,21.14-1.43,1.64,.82,1.88,1.58,.44,2.86-4.25,3.8-8.35,7.77-12.7,11.46-3.53,2.99-7.78,4.33-12.66,4.13Z"/><path d="M909.95,20.99c-3.3,.2-6.33-.85-9.23-2.39-1.15-.61-1.72-1.18-.46-2.35,4.46-4.18,8.67-8.67,13.61-12.29,6.61-4.84,13.79-5.11,21.14-1.41,1.66,.84,1.84,1.6,.42,2.87-4.25,3.8-8.35,7.77-12.7,11.46-3.6,3.05-7.94,4.37-12.77,4.12Z"/></g></g></svg>