<?xml version="1.0" encoding="UTF-8"?><svg id="Layer_2" xmlns="http://www.w3.org/2000/svg" viewBox="0 0 201.45 13.11"><defs><style>.cls-1{fill:#FFFDEF;}</style></defs><g id="Layer_1-2"><path class="cls-1" d="M201.45,8.8v4.31H0v-4.31c2.1-.03,4.18-.45,6.15-1.24,3.27-1.33,6.21-2.85,8.72-4.55,5.98-4.02,13.72-4.02,19.7,0,2.51,1.69,5.45,3.22,8.72,4.55,4.12,1.66,8.74,1.66,12.86,0,3.27-1.33,6.21-2.85,8.72-4.55,5.98-4.02,13.72-4.02,19.7,0,2.51,1.69,5.45,3.22,8.72,4.55,4.12,1.66,8.74,1.66,12.86,0,3.27-1.33,6.21-2.85,8.72-4.55,5.98-4.02,13.72-4.02,19.7,0,2.51,1.69,5.45,3.22,8.72,4.55,4.12,1.66,8.74,1.66,12.86,0,3.27-1.33,6.21-2.85,8.72-4.55,5.98-4.02,13.72-4.02,19.7,0,2.51,1.69,5.45,3.22,8.72,4.55,2.6,1.05,5.41,1.52,8.16,1.24Z"/></g></svg>